HIERARCHY
ROOT hip
{
  OFFSET 0 0 0
  CHANNELS 6 Xposition Yposition Zposition Zrotation Yrotation Xrotation
  JOINT abdomen
  {
    OFFSET 0 20.6881 -0.73152
    CHANNELS 3 Zrotation Xrotation Yrotation
    JOINT chest
    {
      OFFSET 0 11.7043 -0.48768
      CHANNELS 3 Zrotation Xrotation Yrotation
      JOINT neck
      {
        OFFSET 0 22.1894 -2.19456
        CHANNELS 3 Zrotation Xrotation Yrotation
        JOINT head
        {
          OFFSET -0.24384 7.07133 1.2192
          CHANNELS 3 Zrotation Xrotation Yrotation
          JOINT leftEye
          {
            OFFSET 4.14528 8.04674 8.04672
            CHANNELS 3 Zrotation Xrotation Yrotation
            End Site
            {
              OFFSET 1 0 0
            }
          }
          JOINT rightEye
          {
            OFFSET -3.6576 8.04674 8.04672
            CHANNELS 3 Zrotation Xrotation Yrotation
            End Site
            {
              OFFSET 1 0 0
            }
          }
        }
      }
      JOINT rCollar
      {
        OFFSET -2.68224 19.2634 -4.8768
        CHANNELS 3 Zrotation Xrotation Yrotation
        JOINT rShldr
        {
          OFFSET -8.77824 -1.95073 1.46304
          CHANNELS 3 Zrotation Xrotation Yrotation
          JOINT rForeArm
          {
            OFFSET -28.1742 -1.7115 0.48768
            CHANNELS 3 Zrotation Xrotation Yrotation
            JOINT rHand
            {
              OFFSET -22.5879 0.773209 7.07136
              CHANNELS 3 Zrotation Xrotation Yrotation
              JOINT rThumb1
              {
                OFFSET -1.2192 -0.487915 3.41376
                CHANNELS 3 Zrotation Xrotation Yrotation
                JOINT rThumb2
                {
                  OFFSET -3.37035 -0.52449 3.41376
                  CHANNELS 3 Zrotation Xrotation Yrotation
                  End Site
                  {
                    OFFSET -1.78271 -1.18214 1.43049
                  }
                }
              }
              JOINT rIndex1
              {
                OFFSET -7.75947 0.938293 5.60832
                CHANNELS 3 Zrotation Xrotation Yrotation
                JOINT rIndex2
                {
                  OFFSET -2.54057 -0.884171 1.56538
                  CHANNELS 3 Zrotation Xrotation Yrotation
                  End Site
                  {
                    OFFSET -1.62519 -0.234802 1.16502
                  }
                }
              }
              JOINT rMid1
              {
                OFFSET -8.24714 1.18213 3.41376
                CHANNELS 3 Zrotation Xrotation Yrotation
                JOINT rMid2
                {
                  OFFSET -3.10165 -0.590103 1.0647
                  CHANNELS 3 Zrotation Xrotation Yrotation
                  End Site
                  {
                    OFFSET -2.48547 -0.328903 0.83742
                  }
                }
              }
              JOINT rRing1
              {
                OFFSET -8.82822 0.546677 1.51678
                CHANNELS 3 Zrotation Xrotation Yrotation
                JOINT rRing2
                {
                  OFFSET -2.60934 -0.819778 -0.0198488
                  CHANNELS 3 Zrotation Xrotation Yrotation
                  End Site
                  {
                    OFFSET -2.33842 -0.294052 0.168128
                  }
                }
              }
              JOINT rPinky1
              {
                OFFSET -8.27202 -0.0477905 -0.4584
                CHANNELS 3 Zrotation Xrotation Yrotation
                JOINT rPinky2
                {
                  OFFSET -1.82734 -0.647385 -0.700984
                  CHANNELS 3 Zrotation Xrotation Yrotation
                  End Site
                  {
                    OFFSET -1.69225 -0.51767 -0.607171
                  }
                }
              }
            }
          }
        }
      }
      JOINT lCollar
      {
        OFFSET 2.68224 19.2634 -4.8768
        CHANNELS 3 Zrotation Xrotation Yrotation
        JOINT lShldr
        {
          OFFSET 8.77824 -1.95073 1.46304
          CHANNELS 3 Zrotation Xrotation Yrotation
          JOINT lForeArm
          {
            OFFSET 28.1742 -1.7115 0.48768
            CHANNELS 3 Zrotation Xrotation Yrotation
            JOINT lHand
            {
              OFFSET 22.5879 0.773209 7.07136
              CHANNELS 3 Zrotation Xrotation Yrotation
              JOINT lThumb1
              {
                OFFSET 1.2192 -0.487915 3.41376
                CHANNELS 3 Zrotation Xrotation Yrotation
                JOINT lThumb2
                {
                  OFFSET 3.37035 -0.52449 3.41376
                  CHANNELS 3 Zrotation Xrotation Yrotation
                  End Site
                  {
                    OFFSET 1.78271 -1.18214 1.43049
                  }
                }
              }
              JOINT lIndex1
              {
                OFFSET 7.75947 0.938293 5.60832
                CHANNELS 3 Zrotation Xrotation Yrotation
                JOINT lIndex2
                {
                  OFFSET 2.54057 -0.884171 1.56538
                  CHANNELS 3 Zrotation Xrotation Yrotation
                  End Site
                  {
                    OFFSET 1.62519 -0.234802 1.16502
                  }
                }
              }
              JOINT lMid1
              {
                OFFSET 8.24714 1.18213 3.41376
                CHANNELS 3 Zrotation Xrotation Yrotation
                JOINT lMid2
                {
                  OFFSET 3.10165 -0.590103 1.0647
                  CHANNELS 3 Zrotation Xrotation Yrotation
                  End Site
                  {
                    OFFSET 2.48547 -0.328903 0.83742
                  }
                }
              }
              JOINT lRing1
              {
                OFFSET 8.82822 0.546677 1.51678
                CHANNELS 3 Zrotation Xrotation Yrotation
                JOINT lRing2
                {
                  OFFSET 2.60934 -0.819778 -0.0198488
                  CHANNELS 3 Zrotation Xrotation Yrotation
                  End Site
                  {
                    OFFSET 2.33842 -0.294052 0.168128
                  }
                }
              }
              JOINT lPinky1
              {
                OFFSET 8.27202 -0.0477905 -0.4584
                CHANNELS 3 Zrotation Xrotation Yrotation
                JOINT lPinky2
                {
                  OFFSET 1.82734 -0.647385 -0.700984
                  CHANNELS 3 Zrotation Xrotation Yrotation
                  End Site
                  {
                    OFFSET 1.69225 -0.51767 -0.607171
                  }
                }
              }
            }
          }
        }
      }
    }
  }
  JOINT rButtock
  {
    OFFSET -8.77824 4.35084 1.2192
    CHANNELS 3 Zrotation Xrotation Yrotation
    JOINT rThigh
    {
      OFFSET 0 -1.70687 -2.19456
      CHANNELS 3 Zrotation Xrotation Yrotation
      JOINT rShin
      {
        OFFSET 0 -36.8199 0.73152
        CHANNELS 3 Zrotation Xrotation Yrotation
        JOINT rFoot
        {
          OFFSET 0.73152 -45.1104 -5.12064
          CHANNELS 3 Zrotation Xrotation Yrotation
          End Site
          {
            OFFSET -1.1221 -3.69964 12.103
          }
        }
      }
    }
  }
  JOINT lButtock
  {
    OFFSET 8.77824 4.35084 1.2192
    CHANNELS 3 Zrotation Xrotation Yrotation
    JOINT lThigh
    {
      OFFSET 0 -1.70687 -2.19456
      CHANNELS 3 Zrotation Xrotation Yrotation
      JOINT lShin
      {
        OFFSET 0 -36.8199 0.73152
        CHANNELS 3 Zrotation Xrotation Yrotation
        JOINT lFoot
        {
          OFFSET -0.73152 -45.1104 -5.12064
          CHANNELS 3 Zrotation Xrotation Yrotation
          End Site
          {
            OFFSET 1.1221 -3.69964 12.103
          }
        }
      }
    }
  }
}
MOTION
Frames:	9
Frame Time:	0.00833333
-51.2413 84.1588 -29.2752 -403.418 79.8046 -381.76 -3.22692 25.0409 3.49033 -3.64387 -0.902016 0.914318 1.01225 2.99408 0.387771 -10.075 28.5756 6.88693 -0.0 0.0 0.0 -0.0 0.0 0.0 -1.38189e-13 7.83036e-13 -3.5735e-14 69.1359 41.7941 20.4618 -28.2762 -38.7405 81.6698 -0.427656 -18.2819 -2.661 -3.40607e-10 -2.12814e-09 -9.35695e-09 -4.75149e-10 -3.68874e-09 -1.61649e-08 -3.40605e-10 -2.12814e-09 -9.35696e-09 7.73091 5.47488 0.417314 -3.40608e-10 -2.12814e-09 -9.35695e-09 2.90554 0.965183 0.102902 -3.40596e-10 -2.12814e-09 -9.35696e-09 10.2786 0.731801 0.0259123 -3.40608e-10 -2.12814e-09 -9.35696e-09 2.22167 -0.733487 -0.20892 -1.3818e-13 7.83068e-13 -3.59824e-14 -29.0042 29.9391 -67.76 17.1336 -9.78454 -32.1042 0.648997 22.2579 -3.29751 -3.09727e-09 -2.34801e-09 -2.34538e-10 -5.36037e-09 -4.08584e-09 -3.41067e-10 -3.09727e-09 -2.34801e-09 -2.34518e-10 -7.73091 5.47488 -0.417314 -3.09727e-09 -2.34801e-09 -2.34532e-10 -2.90554 0.965183 -0.102902 -3.09728e-09 -2.34801e-09 -2.34535e-10 -10.2786 0.731801 -0.0259123 -3.09727e-09 -2.34801e-09 -2.34543e-10 -2.22167 -0.733487 0.20892 -2.03217e-16 0.0 -3.88251e-19 3.88601 -27.7685 5.58788 0.0145947 9.67501 0.290157 -0.911325 -2.32092 -7.6038 2.03217e-16 0.0 3.88251e-19 14.0352 -36.8288 -4.2911 0.200145 27.4952 -0.356677 3.54445 -11.5456 9.42815
-51.2316 84.1212 -29.2632 -405.67 80.3499 -383.916 -2.79711 25.1538 2.82966 -3.52436 -0.775451 0.768336 0.809437 2.8575 0.550503 -10.6827 28.3532 7.34761 -0.0 0.0 0.0 -0.0 0.0 0.0 -1.20836e-13 2.23062e-13 -1.15466e-13 71.4848 42.3396 16.3612 -28.0643 -40.3999 84.4524 -0.458684 -18.9168 -2.76021 -1.3224e-10 -2.02111e-09 -2.68103e-09 -2.07188e-10 -3.49996e-09 -4.62752e-09 -1.32236e-10 -2.0211e-09 -2.68104e-09 7.73091 5.47488 0.417314 -1.3224e-10 -2.02111e-09 -2.68104e-09 2.90554 0.965183 0.102902 -1.32231e-10 -2.0211e-09 -2.68104e-09 10.2786 0.731801 0.0259123 -1.32241e-10 -2.0211e-09 -2.68104e-09 2.22167 -0.733487 -0.20892 -1.20823e-13 2.23086e-13 -1.15718e-13 -29.076 29.7027 -67.8717 17.1281 -9.77894 -32.0922 0.655932 22.3692 -3.31581 3.86368e-10 4.94866e-10 2.11847e-09 7.03314e-10 8.95297e-10 3.65507e-09 3.86367e-10 4.94868e-10 2.11849e-09 -7.73091 5.47488 -0.417314 3.86368e-10 4.94867e-10 2.11847e-09 -2.90554 0.965183 -0.102902 3.8636e-10 4.94865e-10 2.11847e-09 -10.2786 0.731801 -0.0259123 3.86371e-10 4.94864e-10 2.11847e-09 -2.22167 -0.733487 0.20892 -2.03217e-16 0.0 -3.88251e-19 3.86735 -28.1569 4.84767 0.0114729 10.4629 0.303951 -1.00276 -2.73775 -7.637 2.03217e-16 0.0 3.88251e-19 13.9408 -37.1764 -4.66239 0.200542 27.6648 -0.362465 3.46784 -11.6691 9.13346
-51.222 84.0841 -29.1968 -408.031 80.6682 -386.309 -2.44012 25.2914 2.24609 -3.41002 -0.695422 0.637204 0.599121 2.74364 0.707498 -11.2566 28.1439 7.79369 -0.0 0.0 0.0 -0.0 0.0 0.0 -1.09065e-13 -1.9952e-13 -1.79942e-13 73.2824 42.6721 13.1014 -27.7672 -41.7214 86.877 -0.49396 -19.5859 -2.866 7.04646e-11 -1.79638e-09 4.18439e-09 4.92055e-11 -3.10721e-09 7.23679e-09 7.047e-11 -1.79638e-09 4.18437e-09 7.73091 5.47488 0.417314 7.04651e-11 -1.79638e-09 4.18439e-09 2.90554 0.965183 0.102902 7.04718e-11 -1.79638e-09 4.18438e-09 10.2786 0.731801 0.0259123 7.04632e-11 -1.79638e-09 4.18439e-09 2.22167 -0.733487 -0.20892 -1.09064e-13 -1.99506e-13 -1.80196e-13 -29.1273 29.456 -67.9598 17.1273 -9.7781 -32.0904 0.659999 22.4356 -3.32669 3.93412e-09 3.4241e-09 4.36165e-09 6.87601e-09 6.02443e-09 7.45992e-09 3.93412e-09 3.4241e-09 4.36167e-09 -7.73091 5.47488 -0.417314 3.93412e-09 3.4241e-09 4.36166e-09 -2.90554 0.965183 -0.102902 3.93411e-09 3.4241e-09 4.36165e-09 -10.2786 0.731801 -0.0259123 3.93412e-09 3.4241e-09 4.36165e-09 -2.22167 -0.733487 0.20892 -2.03217e-16 0.0 -3.88251e-19 3.86075 -28.5599 4.24441 0.00787309 11.2521 0.316703 -1.08986 -3.12429 -7.67001 2.03217e-16 0.0 3.88251e-19 13.8979 -37.4953 -4.87087 0.201228 27.8497 -0.367803 3.38712 -11.7796 8.83489
-51.2273 84.0404 -29.0975 -410.412 80.7835 -388.784 -2.26042 25.4387 1.88421 -3.34239 -0.659533 0.554167 0.460269 2.72323 0.806711 -11.6251 27.9947 8.08073 -0.0 0.0 0.0 -0.0 0.0 0.0 -1.06564e-13 -3.48474e-13 -2.06587e-13 73.8951 42.894 11.6299 -27.5395 -42.3686 88.282 -0.515285 -19.9663 -2.92674 1.61714e-10 -1.54156e-09 8.59257e-09 1.47233e-10 -2.66352e-09 1.48538e-08 1.6172e-10 -1.54156e-09 8.59256e-09 7.73091 5.47488 0.417314 1.61715e-10 -1.54156e-09 8.59257e-09 2.90554 0.965183 0.102902 1.6172e-10 -1.54156e-09 8.59257e-09 10.2786 0.731801 0.0259123 1.61712e-10 -1.54156e-09 8.59257e-09 2.22167 -0.733487 -0.20892 -1.0659e-13 -3.48465e-13 -2.06835e-13 -29.0846 29.2577 -68.0275 17.1322 -9.78305 -32.101 0.662505 22.4761 -3.33336 6.23431e-09 5.37727e-09 5.62015e-09 1.08747e-08 9.43998e-09 9.58817e-09 6.23431e-09 5.37728e-09 5.62017e-09 -7.73091 5.47488 -0.417314 6.23431e-09 5.37728e-09 5.62016e-09 -2.90554 0.965183 -0.102902 6.23431e-09 5.37728e-09 5.62016e-09 -10.2786 0.731801 -0.0259123 6.23432e-09 5.37728e-09 5.62015e-09 -2.22167 -0.733487 0.20892 -2.03217e-16 0.0 -3.88251e-19 3.87868 -28.8079 3.87814 0.00513925 11.8051 0.325493 -1.14789 -3.3831 -7.68579 2.03217e-16 0.0 3.88251e-19 13.9173 -37.6777 -4.92863 0.202141 28.0108 -0.371667 3.32587 -11.8661 8.60749
-51.2366 84.0188 -29.031 -411.639 80.8074 -390.138 -2.31064 25.6226 1.76105 -3.32509 -0.67297 0.520962 0.429802 2.84508 0.834605 -11.7225 27.9057 8.15958 -0.0 0.0 0.0 -0.0 0.0 0.0 -1.25344e-13 -4.07352e-14 -1.77033e-13 72.8098 43.1666 12.5 -27.4887 -42.2337 88.3924 -0.513757 -19.9346 -2.92176 7.08375e-11 -1.23352e-09 9.58423e-09 -2.18199e-11 -2.12913e-09 1.65651e-08 7.08431e-11 -1.23352e-09 9.58422e-09 7.73091 5.47488 0.417314 7.08381e-11 -1.23352e-09 9.58423e-09 2.90554 0.965183 0.102902 7.0843e-11 -1.23352e-09 9.58423e-09 10.2786 0.731801 0.0259123 7.08355e-11 -1.23352e-09 9.58424e-09 2.22167 -0.733487 -0.20892 -1.25425e-13 -4.07262e-14 -1.77264e-13 -28.9542 29.0966 -68.0272 17.1433 -9.79425 -32.1252 0.663965 22.4987 -3.33709 6.88614e-09 6.08061e-09 5.49435e-09 1.19994e-08 1.06588e-08 9.35723e-09 6.88614e-09 6.08062e-09 5.49437e-09 -7.73091 5.47488 -0.417314 6.88614e-09 6.08062e-09 5.49435e-09 -2.90554 0.965183 -0.102902 6.88613e-09 6.08061e-09 5.49435e-09 -10.2786 0.731801 -0.0259123 6.88614e-09 6.08061e-09 5.49435e-09 -2.22167 -0.733487 0.20892 -2.03217e-16 0.0 -3.88251e-19 3.92686 -28.8253 3.78927 0.00398872 12.0403 0.329287 -1.16709 -3.47484 -7.67927 2.03217e-16 0.0 3.88251e-19 14.0111 -37.6723 -4.80474 0.203344 28.1408 -0.373415 3.28408 -11.9217 8.45117
-51.2698 84.0065 -28.9995 -411.355 80.7455 -389.994 -2.52892 25.8423 1.80761 -3.33876 -0.735077 0.522229 0.460077 3.0615 0.818844 -11.6493 27.8565 8.11188 -0.0 0.0 0.0 -0.0 0.0 0.0 -1.59762e-13 6.02125e-13 -1.07437e-13 70.4132 43.4088 15.1561 -27.5951 -41.5813 87.4693 -0.499649 -19.6754 -2.88051 -1.31589e-10 -8.41034e-10 8.65545e-09 -3.56473e-10 -1.44928e-09 1.49565e-08 -1.31585e-10 -8.41037e-10 8.65545e-09 7.73091 5.47488 0.417314 -1.31589e-10 -8.41038e-10 8.65546e-09 2.90554 0.965183 0.102902 -1.31583e-10 -8.41038e-10 8.65546e-09 10.2786 0.731801 0.0259123 -1.31591e-10 -8.41039e-10 8.65547e-09 2.22167 -0.733487 -0.20892 -1.59922e-13 6.02137e-13 -1.07642e-13 -28.7663 28.9502 -67.9737 17.1599 -9.81106 -32.1616 0.663586 22.492 -3.33602 6.60616e-09 6.09756e-09 4.50627e-09 1.1498e-08 1.06693e-08 7.65476e-09 6.60616e-09 6.09757e-09 4.50629e-09 -7.73091 5.47488 -0.417314 6.60616e-09 6.09756e-09 4.50627e-09 -2.90554 0.965183 -0.102902 6.60615e-09 6.09756e-09 4.50628e-09 -10.2786 0.731801 -0.0259123 6.60617e-09 6.09756e-09 4.50627e-09 -2.22167 -0.733487 0.20892 -2.03217e-16 0.0 -3.88251e-19 4.00323 -28.7145 3.9224 0.00380337 12.0903 0.329653 -1.16148 -3.45596 -7.65947 2.03217e-16 0.0 3.88251e-19 14.1719 -37.544 -4.50319 0.204821 28.2595 -0.373703 3.25193 -11.9537 8.33271
-51.3283 83.9958 -28.9765 -409.81 80.5331 -388.619 -2.85048 26.0416 2.04052 -3.3904 -0.834688 0.565572 0.502978 3.29846 0.769185 -11.4842 27.8642 7.98988 -0.0 0.0 0.0 -0.0 0.0 0.0 -1.87025e-13 1.25939e-12 -2.70099e-14 67.4813 43.3604 18.8346 -27.8278 -40.6209 85.6473 -0.4812 -19.3282 -2.82548 -3.39488e-10 -4.39568e-10 6.84258e-09 -6.88225e-10 -7.54502e-10 1.18201e-08 -3.39485e-10 -4.39569e-10 6.84258e-09 7.73091 5.47488 0.417314 -3.39488e-10 -4.3957e-10 6.84258e-09 2.90554 0.965183 0.102902 -3.39483e-10 -4.39569e-10 6.84258e-09 10.2786 0.731801 0.0259123 -3.39491e-10 -4.3957e-10 6.84259e-09 2.22167 -0.733487 -0.20892 -1.87261e-13 1.25941e-12 -2.71861e-14 -28.4829 28.8597 -67.9622 17.1815 -9.83289 -32.2088 0.660759 22.4472 -3.32863 5.75879e-09 5.62153e-09 3.16356e-09 1.00097e-08 9.81725e-09 5.35086e-09 5.75879e-09 5.62153e-09 3.16358e-09 -7.73091 5.47488 -0.417314 5.75879e-09 5.62153e-09 3.16356e-09 -2.90554 0.965183 -0.102902 5.75878e-09 5.62153e-09 3.16357e-09 -10.2786 0.731801 -0.0259123 5.7588e-09 5.62153e-09 3.16355e-09 -2.22167 -0.733487 0.20892 -2.03217e-16 0.0 -3.88251e-19 4.11197 -28.5722 4.23533 0.00406531 12.0396 0.327517 -1.14172 -3.37275 -7.63039 2.03217e-16 0.0 3.88251e-19 14.3799 -37.3587 -4.08909 0.206376 28.3688 -0.373452 3.23864 -11.9723 8.27758
-51.3952 83.992 -28.9289 -407.579 80.081 -386.611 -3.2097 26.1632 2.47604 -3.48677 -0.96063 0.658602 0.510164 3.48194 0.695384 -11.3054 27.9459 7.84558 -0.0 0.0 0.0 -0.0 0.0 0.0 -1.84339e-13 1.61034e-12 3.50358e-14 64.8908 42.8268 22.7058 -28.1523 -39.5184 83.063 -0.465898 -19.0321 -2.77879 -4.46784e-10 -1.04583e-10 5.18193e-09 -8.48578e-10 -1.75347e-10 8.9484e-09 -4.46781e-10 -1.04584e-10 5.18193e-09 7.73091 5.47488 0.417314 -4.46784e-10 -1.04583e-10 5.18193e-09 2.90554 0.965183 0.102902 -4.46778e-10 -1.04582e-10 5.18193e-09 10.2786 0.731801 0.0259123 -4.46787e-10 -1.04583e-10 5.18194e-09 2.22167 -0.733487 -0.20892 -1.84618e-13 1.61036e-12 3.48867e-14 -28.0669 28.8661 -68.087 17.2074 -9.85917 -32.2653 0.654911 22.3552 -3.31345 4.70843e-09 4.84594e-09 1.97386e-09 8.17343e-09 8.44853e-09 3.31565e-09 4.70843e-09 4.84594e-09 1.97388e-09 -7.73091 5.47488 -0.417314 4.70843e-09 4.84594e-09 1.97386e-09 -2.90554 0.965183 -0.102902 4.70843e-09 4.84594e-09 1.97386e-09 -10.2786 0.731801 -0.0259123 4.70844e-09 4.84594e-09 1.97385e-09 -2.22167 -0.733487 0.20892 -2.03217e-16 0.0 -3.88251e-19 4.25857 -28.4948 4.68641 0.00423217 11.9725 0.323812 -1.11845 -3.27148 -7.59605 2.03217e-16 0.0 3.88251e-19 14.6174 -37.1829 -3.62634 0.207821 28.4706 -0.373583 3.25335 -11.9878 8.31119
-51.4994 83.9932 -28.8664 -405.222 79.47 -384.397 -3.64426 26.1852 3.23596 -3.65704 -1.12868 0.830898 0.433024 3.58816 0.58484 -11.0784 28.1349 7.66501 -0.0 0.0 0.0 -0.0 0.0 0.0 -1.32628e-13 1.47639e-12 7.13517e-14 62.7198 41.6015 27.0844 -28.5642 -37.9387 79.1729 -0.452688 -18.7737 -2.73816 -4.02456e-10 1.59879e-10 3.6139e-09 -7.48589e-10 2.80753e-10 6.23905e-09 -4.02451e-10 1.59878e-10 3.61389e-09 7.73091 5.47488 0.417314 -4.02456e-10 1.59879e-10 3.6139e-09 2.90554 0.965183 0.102902 -4.02451e-10 1.5988e-10 3.6139e-09 10.2786 0.731801 0.0259123 -4.02459e-10 1.5988e-10 3.61391e-09 2.22167 -0.733487 -0.20892 -1.32904e-13 1.47641e-12 7.12321e-14 -27.4967 29.002 -68.3921 17.2456 -9.89813 -32.3488 0.646574 22.221 -3.29138 3.21019e-09 3.48845e-09 9.06904e-10 5.56561e-09 6.07274e-09 1.50189e-09 3.21019e-09 3.48845e-09 9.06924e-10 -7.73091 5.47488 -0.417314 3.21019e-09 3.48845e-09 9.06907e-10 -2.90554 0.965183 -0.102902 3.21019e-09 3.48844e-09 9.06909e-10 -10.2786 0.731801 -0.0259123 3.2102e-09 3.48844e-09 9.06897e-10 -2.22167 -0.733487 0.20892 -2.03217e-16 0.0 -3.88251e-19 4.46704 -28.4933 5.37874 0.00433296 11.8616 0.317338 -1.08757 -3.13361 -7.55151 2.03217e-16 0.0 3.88251e-19 14.9015 -36.9978 -3.08011 0.209151 28.5643 -0.374381 3.31676 -12.0083 8.49402
